<svg width="8364" height="4792" viewBox="0 0 8364 4792" fill="none" xmlns="http://www.w3.org/2000/svg">
<path d="M8095.76 2034.2L8095.75 1221.74L583.647 1172.83C583.646 2894.5 650.633 2894.45 583.647 3311.42C1305.38 2803.68 1812.26 2552.5 2131.86 2415C2213.89 2379.71 2299.26 2352.43 2387.39 2338.03C3132.23 2216.33 3962.74 2428.14 4301.04 2556.86C5320.89 2935.47 5987.91 2690.06 6290.43 2446.25C6381.54 2372.82 6462.29 2285.48 6560.2 2221.4C7302.85 1735.39 7847.36 1862.99 8095.79 2034.22C8098.34 2036.61 8316.04 2240.02 8173.95 2098.44C8152.51 2077.08 8126.4 2055.32 8095.79 2034.22C8095.77 2034.2 8095.76 2034.2 8095.76 2034.2Z" fill="#E66732"/>
<path d="M8049.5 1924.29L8082.91 1206.3L498.74 1206.29C286.272 2230.7 344.991 2957.99 415.296 3239.28C183.398 3333.12 -398.797 3900.37 434.887 3305.74C468.211 3399.48 498.74 3389.71 498.74 3260.51C1162.04 2794.45 1812.02 2454.31 2178.73 2284.73C2297.83 2229.65 2423 2188.17 2552.94 2169.84C3271.45 2068.48 4053.57 2270.15 4377.61 2394.45C5180.41 2694.85 5762.2 2598.33 6116.47 2422.86C6379.81 2292.43 6577.34 2051.69 6841.57 1923.08C7544.5 1580.93 8029.53 1857.37 8049.5 1924.29Z" fill="url(#paint0_linear_392_3)"/>
<path d="M2274.51 1299.84C2274.51 1520.34 1947.12 1869.57 1626.28 1869.57C1305.43 1869.57 713.37 1370.06 713.37 1149.55C713.37 929.048 1305.43 1071.05 1626.28 1071.05C1947.12 1071.05 2274.51 1079.33 2274.51 1299.84Z" fill="white"/>
<defs>
<linearGradient id="paint0_linear_392_3" x1="4633.6" y1="-108.762" x2="-488.121" y2="5884.81" gradientUnits="userSpaceOnUse">
<stop stop-color="#F5855B"/>
<stop offset="1" stop-color="#F5844A"/>
</linearGradient>
</defs>
</svg>
