<svg width="5288" height="1846" viewBox="0 0 5288 1846" fill="none" xmlns="http://www.w3.org/2000/svg">
<path d="M653.47 1172.59C405.225 981.218 114.388 1521.2 0 1643.73V214.27H5288V1387.01C5266.7 1358.32 5170.45 1754.29 4955.79 1823.14C4687.46 1909.2 4753.18 1737.08 4293.19 1387.01C3906.39 1092.63 3600.5 1381.78 3463.69 1652.7C3437.57 1704.41 3392.42 1746.87 3335.21 1755.94C2837.97 1834.8 3005.47 1363.47 2376.59 1566.42C2029.44 1678.45 1839.94 1087.99 1379.95 1387.01C919.97 1686.03 963.778 1411.8 653.47 1172.59Z" fill="#E66732"/>
<path d="M653.471 1105.48C405.225 914.109 114.388 1454.09 0 1576.62V147.161H5288V1319.9C5266.7 1291.21 5170.45 1687.18 4955.79 1756.03C4687.46 1842.09 4753.18 1669.97 4293.19 1319.9C3906.39 1025.52 3600.5 1314.67 3463.69 1585.59C3437.57 1637.3 3392.42 1679.76 3335.21 1688.83C2837.97 1767.69 3005.47 1296.36 2376.59 1499.31C2029.44 1611.34 1839.94 1020.88 1379.95 1319.9C919.97 1618.92 963.778 1344.7 653.471 1105.48Z" fill="url(#paint0_linear_399_11)"/>
<path d="M1383.1 157.482C1383.1 284.315 1180.42 485.187 981.779 485.187C783.144 485.187 416.597 197.871 416.597 71.0375C416.597 -55.7957 783.144 25.8838 981.779 25.8838C1180.42 25.8838 1383.1 30.6488 1383.1 157.482Z" fill="white"/>
<defs>
<linearGradient id="paint0_linear_399_11" x1="2644" y1="147.161" x2="3068.03" y2="2514.6" gradientUnits="userSpaceOnUse">
<stop stop-color="#F5855B"/>
<stop offset="1" stop-color="#F5843F"/>
</linearGradient>
</defs>
</svg>
