<svg width="6637" height="2330" viewBox="0 0 6637 2330" fill="none" xmlns="http://www.w3.org/2000/svg">
<path d="M0 642.418V207.287H6620.36C6657.8 896.634 6620.36 2120.93 6620.36 2298.72C6620.36 2393.35 5587.16 2275.33 5137.94 1905.7C4809.6 1635.54 4471.89 1430.73 4308.95 1342.65C4281.48 1327.81 4252.81 1315.61 4222.87 1306.76C3862.3 1200.1 3425.28 1233.26 3245.61 1264.7C2705.68 1355.33 2395.55 1202.93 2269.47 1080.38C2235.55 1047.4 2205.64 1009.81 2168.35 980.69C1836.12 721.238 1553.4 739.197 1417.24 794.886C1388.62 806.595 1361 821.484 1331.98 832.17C594.032 1103.86 137.68 821.381 0 642.418Z" fill="#E66732"/>
<path d="M17.3682 569.225V134.094H6551.11C6588.05 823.441 6551.11 2047.73 6551.11 2225.53C6551.11 2320.15 5531.42 2202.14 5088.08 1832.51C4776.82 1573 4457.02 1373.79 4289.76 1280.42C4249.65 1258.04 4207.43 1239.69 4163.22 1227.24C3811.73 1128.25 3394.24 1160.71 3220.51 1191.51C2783.38 1265.85 2498.87 1176.65 2342.06 1074.54C2242.28 1009.57 2168.8 909.526 2069.59 843.69C1801.79 665.972 1574.73 669.32 1445.47 710.927C1396.54 726.679 1351.19 752.35 1302.77 769.61C591.605 1023.11 151.424 745.788 17.3682 569.225Z" fill="url(#paint0_linear_368_809)"/>
<path d="M1879.73 223.318C1879.73 403.084 1571.12 687.788 1268.68 687.788C966.243 687.788 408.145 280.563 408.145 100.797C408.145 -78.9681 966.243 36.7993 1268.68 36.7993C1571.12 36.7993 1879.73 43.553 1879.73 223.318Z" fill="white"/>
<defs>
<linearGradient id="paint0_linear_368_809" x1="3292.45" y1="134.094" x2="4875.01" y2="3206.31" gradientUnits="userSpaceOnUse">
<stop stop-color="#F5855B"/>
<stop offset="1" stop-color="#F5844A"/>
</linearGradient>
</defs>
</svg>
