<svg width="4556" height="2779" viewBox="0 0 4556 2779" fill="none" xmlns="http://www.w3.org/2000/svg">
<path d="M3765.12 2050.74C4010.07 1955.97 4092.75 2309.85 4146.93 2441.26L4536.52 1423.56L454.216 55.1454L127.575 1029.59C152.005 1011.27 116.025 1365.2 262.565 1477.95C445.74 1618.89 442.95 1458.87 895.56 1287.03C1283.37 1139.78 1409.97 1451.88 1457.03 1731.95C1464.51 1776.51 1488.92 1817.83 1528.59 1839.45C1894.25 2038.7 1894.75 1599.56 2325.19 1932.08C2561.99 2115 2872.74 1673.41 3144.56 2040.91C3416.38 2408.4 3458.94 2169.21 3765.12 2050.74Z" fill="#E66732"/>
<path d="M3783.83 1995.67C4028.78 1900.9 4100.67 2243.21 4154.85 2374.62L4555.23 1368.49L472.926 0.0755744L146.285 974.524C170.716 956.199 134.736 1310.13 281.276 1422.88C464.45 1563.82 461.661 1403.8 914.271 1231.96C1294.14 1087.73 1449.88 1405.65 1480.46 1665.88C1486.43 1716.63 1511.06 1765.45 1556.3 1789.2C1913 1976.42 1917.02 1547.24 2343.9 1877.01C2580.7 2059.93 2891.45 1618.34 3163.27 1985.84C3435.09 2353.33 3477.65 2114.14 3783.83 1995.67Z" fill="url(#paint0_linear_301_503)"/>
<defs>
<linearGradient id="paint0_linear_301_503" x1="2514.08" y1="684.282" x2="1480.54" y2="2515.29" gradientUnits="userSpaceOnUse">
<stop stop-color="#F5855B"/>
<stop offset="1" stop-color="#F5843F"/>
</linearGradient>
</defs>
</svg>
