<svg width="2063" height="888" viewBox="0 0 2063 888" fill="none" xmlns="http://www.w3.org/2000/svg">
<path d="M14.9331 274.029V115.731H2057.59C2069.14 366.511 2057.59 811.901 2057.59 876.582C2057.59 911.005 1738.81 868.071 1600.2 733.603C1501.92 638.254 1400.92 565.282 1349.07 531.753C1337.56 524.307 1325.31 518.131 1312.29 513.817C1202.15 477.31 1070.85 489.165 1016.34 500.412C852.356 532.864 757.074 479.655 717.029 435.458C704.919 422.091 694.738 406.843 681.376 394.729C583.682 306.163 500.165 309.058 456.941 327.358C444.645 332.564 433.286 339.957 420.991 345.166C196.191 440.417 57.1067 338.665 14.9331 274.029Z" fill="#E66732"/>
<path d="M20.5317 247.572V89.249H2036.13C2047.53 340.069 2036.13 785.531 2036.13 850.222C2036.13 884.651 1721.57 841.71 1584.8 707.22C1492.8 616.751 1398.38 546.423 1345.25 510.811C1328.51 499.592 1310.53 490.286 1291.27 484.363C1184.62 451.569 1060.92 463.066 1008.67 473.991C879.645 499.873 793.722 471.279 744.167 436.218C707.19 410.055 682.768 368.96 646.416 341.937C572.311 286.848 508.925 284.498 469.317 296.347C448.082 302.699 429.292 315.643 408.728 323.911C194.237 410.155 61.3604 310.997 20.5317 247.572Z" fill="url(#paint0_linear_368_809)"/>
<path d="M488.038 85.0676C488.038 153.579 385.888 262.085 285.778 262.085C185.669 262.085 0.935059 106.884 0.935059 38.3725C0.935059 -30.1394 185.669 13.9817 285.778 13.9817C385.888 13.9817 488.038 16.5557 488.038 85.0676Z" fill="white"/>
<defs>
<linearGradient id="paint0_linear_368_809" x1="1030.86" y1="89.249" x2="1658.54" y2="1122.34" gradientUnits="userSpaceOnUse">
<stop stop-color="#F5855B"/>
<stop offset="1" stop-color="#F5844A"/>
</linearGradient>
</defs>
</svg>
